<svg width="39" height="40" viewBox="0 0 39 40" fill="none" xmlns="http://www.w3.org/2000/svg"><g filter="url(#filter0_d)"><circle cx="19" cy="19" fill="#F3903F" r="12"/></g><g clip-path="url(#clip0)"><path d="M24.396 21.513a7.24 7.24 0 01-2.238-.35c-.348-.118-.744-.027-.973.202l-1.416 1.05c-1.624-.85-2.664-1.871-3.52-3.456l1.04-1.358a.964.964 0 00.244-.986 6.898 6.898 0 01-.358-2.2.977.977 0 00-.985-.968h-2.297a.977.977 0 00-.985.968c0 6.22 5.154 11.282 11.488 11.282a.977.977 0 00.985-.967v-2.25a.977.977 0 00-.985-.967zm.328 3.217a.326.326 0 01-.328.323c-5.972 0-10.831-4.773-10.831-10.639 0-.178.147-.322.328-.322h2.297c.181 0 .329.144.329.322 0 .824.131 1.632.388 2.399.038.12.008.245-.113.367L15.6 18.734a.318.318 0 00-.03.34c.973 1.879 2.155 3.04 4.081 4.01a.334.334 0 00.348-.03l1.616-1.203a.333.333 0 01.334-.077 7.917 7.917 0 002.447.384c.18 0 .328.144.328.322v2.25z" fill="#fff"/></g><circle cx="20" cy="20" r="19" stroke="#F3903F"/><defs><clipPath id="clip0"><path fill="#fff" transform="translate(12.908 13.447)" d="M0 0h12v12H0z"/></clipPath><filter id="filter0_d" x="3" y="7" width="33" height="33" filterUnits="userSpaceOnUse" color-interpolation-filters="sRGB"><feFlood flood-opacity="0" result="BackgroundImageFix"/><feColorMatrix in="SourceAlpha" values="0 0 0 0 0 0 0 0 0 0 0 0 0 0 0 0 0 0 127 0"/><feOffset dy="4"/><feGaussianBlur stdDeviation="2"/><feColorMatrix values="0 0 0 0 0.9875 0 0 0 0 0.67294 0 0 0 0 0.415573 0 0 0 1 0"/><feBlend in2="BackgroundImageFix" result="effect1_dropShadow"/><feBlend in="SourceGraphic" in2="effect1_dropShadow" result="shape"/></filter></defs></svg>